<svg width="19" height="19" viewBox="0 0 19 19" fill="none" xmlns="http://www.w3.org/2000/svg">
<path d="M16.25 2.03662C16.5484 2.03662 16.8345 2.15515 17.0455 2.36613C17.2565 2.5771 17.375 2.86325 17.375 3.16162V12.1616C17.375 12.46 17.2565 12.7461 17.0455 12.9571C16.8345 13.1681 16.5484 13.2866 16.25 13.2866H5.46575C4.86906 13.2867 4.29686 13.5239 3.875 13.9459L1.625 16.1959V3.16162C1.625 2.86325 1.74353 2.5771 1.9545 2.36613C2.16548 2.15515 2.45163 2.03662 2.75 2.03662H16.25ZM2.75 0.911621C2.15326 0.911621 1.58097 1.14867 1.15901 1.57063C0.737053 1.99259 0.5 2.56488 0.5 3.16162L0.5 17.5537C0.500024 17.6651 0.533067 17.7738 0.594947 17.8664C0.656827 17.9589 0.744763 18.031 0.847624 18.0735C0.950486 18.116 1.06365 18.127 1.17279 18.1052C1.28193 18.0834 1.38215 18.0297 1.46075 17.9509L4.67037 14.7412C4.8813 14.5303 5.16741 14.4117 5.46575 14.4116H16.25C16.8467 14.4116 17.419 14.1746 17.841 13.7526C18.2629 13.3307 18.5 12.7584 18.5 12.1616V3.16162C18.5 2.56488 18.2629 1.99259 17.841 1.57063C17.419 1.14867 16.8467 0.911621 16.25 0.911621L2.75 0.911621Z" fill="#EFA220"/>
<path d="M6.125 7.66162C6.125 7.95999 6.00647 8.24614 5.7955 8.45712C5.58452 8.66809 5.29837 8.78662 5 8.78662C4.70163 8.78662 4.41548 8.66809 4.2045 8.45712C3.99353 8.24614 3.875 7.95999 3.875 7.66162C3.875 7.36325 3.99353 7.0771 4.2045 6.86613C4.41548 6.65515 4.70163 6.53662 5 6.53662C5.29837 6.53662 5.58452 6.65515 5.7955 6.86613C6.00647 7.0771 6.125 7.36325 6.125 7.66162V7.66162ZM10.625 7.66162C10.625 7.95999 10.5065 8.24614 10.2955 8.45712C10.0845 8.66809 9.79837 8.78662 9.5 8.78662C9.20163 8.78662 8.91548 8.66809 8.70451 8.45712C8.49353 8.24614 8.375 7.95999 8.375 7.66162C8.375 7.36325 8.49353 7.0771 8.70451 6.86613C8.91548 6.65515 9.20163 6.53662 9.5 6.53662C9.79837 6.53662 10.0845 6.65515 10.2955 6.86613C10.5065 7.0771 10.625 7.36325 10.625 7.66162ZM15.125 7.66162C15.125 7.95999 15.0065 8.24614 14.7955 8.45712C14.5845 8.66809 14.2984 8.78662 14 8.78662C13.7016 8.78662 13.4155 8.66809 13.2045 8.45712C12.9935 8.24614 12.875 7.95999 12.875 7.66162C12.875 7.36325 12.9935 7.0771 13.2045 6.86613C13.4155 6.65515 13.7016 6.53662 14 6.53662C14.2984 6.53662 14.5845 6.65515 14.7955 6.86613C15.0065 7.0771 15.125 7.36325 15.125 7.66162Z" fill="#EFA220"/>
</svg>
