<svg width="10" height="16" viewBox="0 0 10 16" fill="none" xmlns="http://www.w3.org/2000/svg">
<path d="M2 3.00003C2 2.20438 2.31607 1.44132 2.87868 0.87871C3.44129 0.316101 4.20435 3.05176e-05 5 3.05176e-05C5.79565 3.05176e-05 6.55871 0.316101 7.12132 0.87871C7.68393 1.44132 8 2.20438 8 3.00003V8.00003C8 8.79568 7.68393 9.55874 7.12132 10.1214C6.55871 10.684 5.79565 11 5 11C4.20435 11 3.44129 10.684 2.87868 10.1214C2.31607 9.55874 2 8.79568 2 8.00003V3.00003Z" fill="white"/>
<path d="M0.5 6.50003C0.632608 6.50003 0.759785 6.55271 0.853553 6.64648C0.947321 6.74025 1 6.86742 1 7.00003V8.00003C1 9.0609 1.42143 10.0783 2.17157 10.8285C2.92172 11.5786 3.93913 12 5 12C6.06087 12 7.07828 11.5786 7.82843 10.8285C8.57857 10.0783 9 9.0609 9 8.00003V7.00003C9 6.86742 9.05268 6.74025 9.14645 6.64648C9.24021 6.55271 9.36739 6.50003 9.5 6.50003C9.63261 6.50003 9.75979 6.55271 9.85355 6.64648C9.94732 6.74025 10 6.86742 10 7.00003V8.00003C10 9.23956 9.53962 10.4349 8.70812 11.3542C7.87662 12.2734 6.73332 12.8511 5.5 12.975V15H8.5C8.63261 15 8.75979 15.0527 8.85355 15.1465C8.94732 15.2402 9 15.3674 9 15.5C9 15.6326 8.94732 15.7598 8.85355 15.8536C8.75979 15.9474 8.63261 16 8.5 16H1.5C1.36739 16 1.24021 15.9474 1.14645 15.8536C1.05268 15.7598 1 15.6326 1 15.5C1 15.3674 1.05268 15.2402 1.14645 15.1465C1.24021 15.0527 1.36739 15 1.5 15H4.5V12.975C3.26668 12.8511 2.12338 12.2734 1.29188 11.3542C0.460384 10.4349 -1.55717e-05 9.23956 3.95006e-10 8.00003V7.00003C3.95006e-10 6.86742 0.0526785 6.74025 0.146447 6.64648C0.240215 6.55271 0.367392 6.50003 0.5 6.50003Z" fill="white"/>
</svg>
