<svg width="16" height="14" viewBox="0 0 16 14" fill="none" xmlns="http://www.w3.org/2000/svg">
<path d="M9.246 0.565037C9.32305 0.608578 9.38716 0.671789 9.43178 0.748214C9.47641 0.824638 9.49995 0.911538 9.5 1.00004V13C9.50002 13.0885 9.47657 13.1754 9.43203 13.2518C9.3875 13.3283 9.32349 13.3915 9.24652 13.4351C9.16956 13.4788 9.08239 13.5012 8.99394 13.5001C8.90548 13.499 8.81888 13.4745 8.743 13.429L3.862 10.5H2C1.60218 10.5 1.22064 10.342 0.93934 10.0607C0.658035 9.77939 0.5 9.39786 0.5 9.00004L0.5 4.99704C0.500265 4.59939 0.658417 4.21811 0.939693 3.93702C1.22097 3.65593 1.60235 3.49804 2 3.49804H3.862L8.742 0.571037C8.81795 0.525492 8.90464 0.500937 8.99319 0.499883C9.08174 0.498829 9.16899 0.521313 9.246 0.565037ZM14.354 3.64404L14 3.29104L13.293 3.99804L13.644 4.35004L13.647 4.35204L13.667 4.37404C13.8175 4.55805 13.9469 4.75829 14.053 4.97104C14.273 5.41004 14.5 6.08304 14.5 6.99604C14.5 7.90904 14.272 8.58204 14.053 9.02104C13.9687 9.19157 13.8693 9.35422 13.756 9.50704C13.7213 9.55294 13.6846 9.59732 13.646 9.64004L13.644 9.64304L13.293 9.99304L14 10.701L14.354 10.348L14 9.99404L14.354 10.348L14.355 10.346L14.357 10.344L14.362 10.339L14.376 10.325L14.419 10.277C14.454 10.237 14.501 10.18 14.556 10.107C14.666 9.96104 14.807 9.74704 14.947 9.46804C15.227 8.90804 15.5 8.08204 15.5 6.99604C15.5 5.91004 15.228 5.08504 14.947 4.52404C14.8363 4.29983 14.7058 4.08597 14.557 3.88504C14.5002 3.8098 14.4398 3.73738 14.376 3.66804L14.362 3.65304L14.357 3.64804L14.355 3.64604C14.355 3.64504 14.353 3.64404 14 3.99804L14.354 3.64404Z" fill="#EA8215"/>
</svg>
