<svg width="18" height="16" viewBox="0 0 18 16" fill="none" xmlns="http://www.w3.org/2000/svg">
<path d="M8.91945 10.3665C9.51487 10.3665 10.0859 10.13 10.5069 9.70896C10.928 9.28794 11.1645 8.7169 11.1645 8.12148C11.1645 8.05573 11.1615 7.99058 11.1559 7.92624L8.72421 10.3579C8.78856 10.3635 8.8535 10.3665 8.91945 10.3665ZM16.3506 1.17707L15.4942 0.321544C15.4642 0.291493 15.4234 0.274612 15.3809 0.274612C15.3384 0.274612 15.2976 0.291493 15.2675 0.321544L13.0762 2.51347C11.8673 1.89568 10.5085 1.58679 8.99963 1.58679C5.14697 1.58679 2.27251 3.5933 0.376249 7.60632C0.300028 7.76771 0.260498 7.94399 0.260498 8.12248C0.260498 8.30097 0.300028 8.47724 0.376249 8.63864C1.13395 10.2346 2.04634 11.5138 3.1134 12.4763L0.992834 14.596C0.962784 14.6261 0.945903 14.6669 0.945903 14.7094C0.945903 14.7519 0.962784 14.7927 0.992834 14.8227L1.84856 15.6785C1.87863 15.7085 1.9194 15.7254 1.96191 15.7254C2.00442 15.7254 2.0452 15.7085 2.07527 15.6785L16.3506 1.40398C16.3655 1.38908 16.3773 1.3714 16.3854 1.35193C16.3934 1.33246 16.3976 1.3116 16.3976 1.29052C16.3976 1.26945 16.3934 1.24858 16.3854 1.22911C16.3773 1.20965 16.3655 1.19196 16.3506 1.17707ZM5.39152 8.12148C5.39146 7.51212 5.54924 6.91313 5.84949 6.38288C6.14973 5.85262 6.58219 5.40917 7.10476 5.09573C7.62732 4.78229 8.22216 4.60955 8.83133 4.59433C9.44049 4.5791 10.0432 4.72193 10.5808 5.00888L9.60619 5.98347C9.21315 5.85762 8.79303 5.84246 8.39194 5.93966C7.99085 6.03686 7.62429 6.24267 7.33246 6.53449C7.04064 6.82631 6.83484 7.19288 6.73764 7.59397C6.64044 7.99506 6.65559 8.41518 6.78144 8.80822L5.80685 9.78281C5.53336 9.27182 5.39067 8.70105 5.39152 8.12148V8.12148Z" fill="#EFA220"/>
<path d="M17.6237 7.60386C16.9181 6.11785 16.0783 4.90613 15.1043 3.96869L12.215 6.85818C12.4585 7.49484 12.5125 8.18841 12.3704 8.85509C12.2283 9.52176 11.8962 10.133 11.4142 10.615C10.9322 11.097 10.3209 11.4292 9.65422 11.5713C8.98754 11.7134 8.29397 11.6594 7.65731 11.4158L5.2066 13.8665C6.34356 14.3927 7.60814 14.6557 9.00033 14.6557C12.853 14.6557 15.7275 12.6492 17.6237 8.63618C17.6999 8.47479 17.7395 8.29851 17.7395 8.12002C17.7395 7.94153 17.6999 7.76525 17.6237 7.60386V7.60386Z" fill="#EFA220"/>
</svg>
