<svg width="15" height="13" viewBox="0 0 15 13" fill="none" xmlns="http://www.w3.org/2000/svg">
<path d="M8.74615 0.0650367C8.8232 0.108578 8.88731 0.171789 8.93193 0.248214C8.97656 0.324638 9.0001 0.411538 9.00015 0.500037L9.00015 12.5C9.00017 12.5885 8.97672 12.6754 8.93219 12.7518C8.88765 12.8283 8.82364 12.8915 8.74667 12.9351C8.66971 12.9788 8.58255 13.0012 8.49409 13.0001C8.40563 12.999 8.31904 12.9745 8.24315 12.929L3.36215 10H1.50015C1.10233 10 0.720797 9.842 0.439492 9.5607C0.158188 9.27939 0.000152588 8.89786 0.000152588 8.50004L0.000152588 4.49704C0.000417689 4.09939 0.15857 3.71811 0.439846 3.43702C0.721122 3.15593 1.1025 2.99804 1.50015 2.99804H3.36215L8.24215 0.0710366C8.3181 0.025492 8.40479 0.000937055 8.49334 -0.000117152C8.58189 -0.00117136 8.66914 0.0213131 8.74615 0.0650367ZM13.8542 3.14404L13.5002 2.79104L12.7932 3.49804L13.1442 3.85004L13.1472 3.85204L13.1672 3.87404C13.3176 4.05805 13.4471 4.25829 13.5532 4.47104C13.7732 4.91004 14.0002 5.58304 14.0002 6.49604C14.0002 7.40904 13.7722 8.08204 13.5532 8.52104C13.4688 8.69157 13.3694 8.85422 13.2562 9.00704C13.2214 9.05294 13.1847 9.09732 13.1462 9.14004L13.1442 9.14304L12.7932 9.49304L13.5002 10.201L13.8542 9.84804L13.5002 9.49404L13.8542 9.84804L13.8552 9.84604L13.8572 9.84404L13.8622 9.83904L13.8762 9.82504L13.9192 9.77704C13.9542 9.73704 14.0012 9.68004 14.0562 9.60704C14.1662 9.46104 14.3072 9.24704 14.4472 8.96804C14.7272 8.40804 15.0002 7.58204 15.0002 6.49604C15.0002 5.41004 14.7282 4.58504 14.4472 4.02404C14.3365 3.79983 14.206 3.58597 14.0572 3.38504C14.0004 3.3098 13.94 3.23738 13.8762 3.16804L13.8622 3.15304L13.8572 3.14804L13.8552 3.14604C13.8552 3.14504 13.8532 3.14404 13.5002 3.49804L13.8542 3.14404V3.14404Z" fill="white"/>
</svg>
